<svg xmlns="http://www.w3.org/2000/svg" viewBox="0 0 15 14.96"><title>JobHours2</title><g id="Icon_JobHours_2" data-name="Icon JobHours 2"><circle cx="4.49" cy="4.91" r="2.31"/><path d="M7.19,9.37H4.8a3.29,3.29,0,0,0-3.3,3.29v3.8H4.83l.81-4.6-.81-1.29H7.14l-.81,1.29.81,4.6h3.35v-3.8A3.29,3.29,0,0,0,7.19,9.37Z" transform="translate(-1.5 -1.5)"/><polygon points="9.43 6.46 8.54 6.46 8.54 4.69 8.54 2.93 9.43 2.93 9.43 4.69 9.43 6.46"/><polygon points="8.54 6.46 8.97 5.74 10.51 6.66 12.07 7.58 11.64 8.29 10.12 7.39 8.54 6.46"/><path d="M10.63,1.5A5.85,5.85,0,0,0,6.37,3.34a3.26,3.26,0,0,1,1.27.44,4.65,4.65,0,0,1,3-1.11,4.69,4.69,0,0,1,.7,9.32c0,.13,0,.26,0,.4v.79A5.86,5.86,0,0,0,10.63,1.5Z" transform="translate(-1.5 -1.5)"/></g></svg>