<svg xmlns="http://www.w3.org/2000/svg" viewBox="0 0 15 15"><defs><style>.cls-1{fill:#cf9;}.cls-2{opacity:0.5;}.cls-3{fill:#fc3;}.cls-4{opacity:0.1;}</style></defs><title>Points Color</title><g id="Icon_Points" data-name="Icon Points"><circle class="cls-1" cx="7.5" cy="7.5" r="6.82"/><path class="cls-2" d="M9.1,1.71A7.44,7.44,0,0,0,1.71,9.22,7.17,7.17,0,0,0,9,16.5,7.3,7.3,0,0,0,16.22,9,7,7,0,0,0,9.1,1.71Zm0,13.52a6,6,0,1,1,5.92-6A6,6,0,0,1,9.1,15.23Z" transform="translate(-1.5 -1.5)"/><path class="cls-3" d="M9,1.5A7.5,7.5,0,1,0,16.5,9,7.49,7.49,0,0,0,9,1.5ZM9,15a6,6,0,1,1,6-6A6,6,0,0,1,9,15Z" transform="translate(-1.5 -1.5)"/><path class="cls-2" d="M10.54,11.91a.75.75,0,0,1,.1-.38,7.85,7.85,0,0,0,.59-1.39A8.67,8.67,0,0,0,11.5,9a17.23,17.23,0,0,1,1-2.08.24.24,0,0,0-.09-.38.45.45,0,0,0-.45.06c-.35.49-.63,1-.95,1.47-.09.11-.08.24-.19.18A.18.18,0,0,1,10.75,8l.64-2.49a.27.27,0,0,0-.25-.3.39.39,0,0,0-.39.13L10,7.68a.24.24,0,0,1-.13,0,.18.18,0,0,1-.16-.11l.14-2.69a.33.33,0,0,0-.34-.19.36.36,0,0,0-.33.19L8.88,7.53a.09.09,0,0,1-.08.06.11.11,0,0,1-.12-.06L8.12,5.21a.41.41,0,0,0-.39-.12.3.3,0,0,0-.26.21l.25,2.83a.84.84,0,0,1,0,.4,1.11,1.11,0,0,1-.22.34,3,3,0,0,0-.64-.69,2.46,2.46,0,0,0-.34-.25,1,1,0,0,0-.93-.22.45.45,0,0,0-.21.16A.61.61,0,0,0,5.42,8a.9.9,0,0,0,.39.28,1.12,1.12,0,0,1,.34.3.86.86,0,0,1,.2.55,2.62,2.62,0,0,0,.34.8,3.17,3.17,0,0,0,.62.67,1.26,1.26,0,0,1,.41.42,1,1,0,0,1,.12.49v1.1a1,1,0,0,0,.53.81h0a1.69,1.69,0,0,0,1.63,0h0a1,1,0,0,0,.53-.82Z" transform="translate(-1.5 -1.5)"/><path class="cls-3" d="M10.42,11.86a.78.78,0,0,1,.1-.39,7.84,7.84,0,0,0,.6-1.39A7.86,7.86,0,0,0,11.38,9a18.8,18.8,0,0,1,1-2.08.23.23,0,0,0-.09-.37.41.41,0,0,0-.45.06c-.35.49-.63,1-.95,1.46-.08.11-.08.24-.18.18A.15.15,0,0,1,10.64,8l.63-2.49A.28.28,0,0,0,11,5.18a.38.38,0,0,0-.38.13L9.91,7.63a.37.37,0,0,1-.14,0,.21.21,0,0,1-.16-.11l.14-2.69a.35.35,0,0,0-.34-.19.33.33,0,0,0-.32.19L8.76,7.47a.1.1,0,0,1-.08.07s-.11,0-.12-.07L8,5.16A.39.39,0,0,0,7.61,5a.32.32,0,0,0-.26.21L7.6,8.07a.83.83,0,0,1,0,.4,1,1,0,0,1-.22.34,3.45,3.45,0,0,0-.63-.69,2.53,2.53,0,0,0-.35-.25,1,1,0,0,0-.93-.22.45.45,0,0,0-.21.16A.34.34,0,0,0,5.31,8a.91.91,0,0,0,.38.29A1.07,1.07,0,0,1,6,8.53a1,1,0,0,1,.21.55,2.2,2.2,0,0,0,.34.8,2.93,2.93,0,0,0,.62.67,1.35,1.35,0,0,1,.4.42.93.93,0,0,1,.12.5v1.09a1,1,0,0,0,.54.82h0a1.73,1.73,0,0,0,1.64,0h0a1,1,0,0,0,.52-.82Z" transform="translate(-1.5 -1.5)"/><path class="cls-4" d="M14.31,3.7,13.25,4.76l.15.15L4.9,13.39l-.14-.15L3.7,14.31A7.5,7.5,0,0,0,14.31,3.7Z" transform="translate(-1.5 -1.5)"/></g></svg>